# xmcd CD database file
#
# Track frame offsets:
#	182
#	11365
#	28652
#	43975
#	57790
#	74245
#	92277
#	112537
#	129552
#	146295
#	164490
#	181922
#	197302
#	217855
#	235052
#	247770
#
# Disc length: 3464 seconds
#
# Revision: 3
# Processed by: cddbd v1.5.2PL0 Copyright (c) Steve Scherf et al.
# Submitted via: CDex 1.70beta2
#
DISCID=c70d8610
DTITLE=Dick Hyman - Scott Joplin - Piano Works 1899-1904
DYEAR=1975
DGENRE=Ragtime
TTITLE0=Maple Leaf Rag - (1899)
TTITLE1=Original Rags - (1899)
TTITLE2=Swipesy - (1900)
TTITLE3=Peacherine Rag - (1901)
TTITLE4=The Easy Winners - (1901)
TTITLE5=Sunflower Slow Drag - (1901)
TTITLE6=The Entertainer - (1902)
TTITLE7=Elite Syncopations - (1902)
TTITLE8=The Strenuous Life - (1902)
TTITLE9=A Breeze From Alabama - (1902)
TTITLE10=Palm Leaf Rag - (1903)
TTITLE11=Something Doing - (1903)
TTITLE12=Weeping Willow - (1903)
TTITLE13=The Chrysanthemum - (1904)
TTITLE14=The Cascades - (1904)
TTITLE15=The Sycamore - (1904)
EXTD=YEAR: 1975
EXTT0=
EXTT1=
EXTT2=
EXTT3=
EXTT4=
EXTT5=
EXTT6=
EXTT7=
EXTT8=
EXTT9=
EXTT10=
EXTT11=
EXTT12=
EXTT13=
EXTT14=
EXTT15=
PLAYORDER=
